<?xml version="1.0" standalone="no"?>
<!DOCTYPE svg PUBLIC "-//W3C//DTD SVG 20010904//EN"
 "http://www.w3.org/TR/2001/REC-SVG-20010904/DTD/svg10.dtd">
<svg version="1.0" xmlns="http://www.w3.org/2000/svg"
 width="160.000000pt" height="160.000000pt" viewBox="0 0 160.000000 160.000000"
 preserveAspectRatio="xMidYMid meet">
<metadata>
Created by potrace 1.11, written by Peter Selinger 2001-2013
</metadata>
<g transform="translate(0.000000,160.000000) scale(0.100000,-0.100000)"
fill="#000000" stroke="none">
<path d="M1377 1514 c-1 -1 -24 -4 -52 -8 -46 -5 -64 -9 -112 -20 -10 -2 -39
-9 -66 -15 -136 -31 -346 -133 -482 -233 -91 -67 -259 -237 -310 -313 -22 -33
-43 -62 -47 -65 -4 -3 -34 -58 -67 -122 -51 -101 -90 -198 -106 -264 -29 -119
-46 -216 -51 -296 l-6 -98 490 0 490 0 6 48 c30 212 182 370 390 404 l66 11 0
489 0 489 -71 -3 c-39 -2 -71 -4 -72 -4z"/>
</g>
</svg>
